<svg xmlns="http://www.w3.org/2000/svg" width="540" height="360" viewBox="0 0 540 360" role="img" aria-label="activity">
<style>
.bg{fill:#0d1117}
.border{fill:none;stroke:#30363d;stroke-width:1}
text{font-family:'SF Mono','Monaco','Cascadia Mono','JetBrains Mono','Fira Code','Inconsolata','Roboto Mono','Consolas','Liberation Mono','DejaVu Sans Mono','Courier New',monospace;font-size:13px;fill:#c9d1d9}
.dim{fill:#6e7681}
.label{fill:#8b949e}
.acc{fill:#7c3aed;font-weight:600}
.blue{fill:#58a6ff}
.orange{fill:#f78166;font-weight:600}
.green{fill:#3fb950}
.yellow{fill:#d29922}
.red{fill:#ff7b72}
.small{font-size:11px}
.big{font-size:15px;font-weight:600}
.huge{font-size:18px;font-weight:700;fill:#7c3aed}
.mono{letter-spacing:0.5px}
</style>
<rect class="bg" width="540" height="360" rx="10"/>
<rect class="border" width="540" height="360" rx="10"/>
<circle cx="18" cy="18" r="5.5" fill="#ff5f57"/>
<circle cx="36" cy="18" r="5.5" fill="#febc2e"/>
<circle cx="54" cy="18" r="5.5" fill="#28c840"/>
<text x="270.0" y="22" text-anchor="middle" class="dim small">activity</text>
<text x="20" y="56"><tspan class="acc">▸</tspan> <tspan class="blue">contrib</tspan> --since=30d</text><rect x="20" y="80" width="153" height="70" rx="6" fill="#161b22"/><text x="96.5" y="112" text-anchor="middle" class="big" fill="#f78166">471</text><text x="96.5" y="136" text-anchor="middle" class="label small">commits</text><rect x="183" y="80" width="153" height="70" rx="6" fill="#161b22"/><text x="259.5" y="112" text-anchor="middle" class="big" fill="#3fb950">27 / 30</text><text x="259.5" y="136" text-anchor="middle" class="label small">active days</text><rect x="346" y="80" width="153" height="70" rx="6" fill="#161b22"/><text x="422.5" y="112" text-anchor="middle" class="big" fill="#7c3aed">63</text><text x="422.5" y="136" text-anchor="middle" class="label small">best day</text><text x="20" y="190"><tspan class="acc">▸</tspan> <tspan class="blue">heatmap</tspan> --weeks=15</text><text x="50" y="222" text-anchor="end" class="dim small">Mon</text><rect x="60" y="210" width="16" height="16" rx="3" fill="#161b22"/><rect x="80" y="210" width="16" height="16" rx="3" fill="#2d2440"/><rect x="100" y="210" width="16" height="16" rx="3" fill="#2d2440"/><rect x="120" y="210" width="16" height="16" rx="3" fill="#2d2440"/><rect x="140" y="210" width="16" height="16" rx="3" fill="#2d2440"/><rect x="160" y="210" width="16" height="16" rx="3" fill="#161b22"/><rect x="180" y="210" width="16" height="16" rx="3" fill="#161b22"/><rect x="200" y="210" width="16" height="16" rx="3" fill="#2d2440"/><rect x="220" y="210" width="16" height="16" rx="3" fill="#161b22"/><rect x="240" y="210" width="16" height="16" rx="3" fill="#2d2440"/><rect x="260" y="210" width="16" height="16" rx="3" fill="#4a3768"/><rect x="280" y="210" width="16" height="16" rx="3" fill="#2d2440"/><rect x="300" y="210" width="16" height="16" rx="3" fill="#7c3aed"/><rect x="320" y="210" width="16" height="16" rx="3" fill="#4a3768"/><rect x="340" y="210" width="16" height="16" rx="3" fill="#161b22"/><rect x="60" y="230" width="16" height="16" rx="3" fill="#161b22"/><rect x="80" y="230" width="16" height="16" rx="3" fill="#2d2440"/><rect x="100" y="230" width="16" height="16" rx="3" fill="#161b22"/><rect x="120" y="230" width="16" height="16" rx="3" fill="#161b22"/><rect x="140" y="230" width="16" height="16" rx="3" fill="#161b22"/><rect x="160" y="230" width="16" height="16" rx="3" fill="#161b22"/><rect x="180" y="230" width="16" height="16" rx="3" fill="#161b22"/><rect x="200" y="230" width="16" height="16" rx="3" fill="#2d2440"/><rect x="220" y="230" width="16" height="16" rx="3" fill="#161b22"/><rect x="240" y="230" width="16" height="16" rx="3" fill="#7c3aed"/><rect x="260" y="230" width="16" height="16" rx="3" fill="#2d2440"/><rect x="280" y="230" width="16" height="16" rx="3" fill="#4a3768"/><rect x="300" y="230" width="16" height="16" rx="3" fill="#7c3aed"/><rect x="320" y="230" width="16" height="16" rx="3" fill="#4a3768"/><rect x="340" y="230" width="16" height="16" rx="3" fill="#161b22"/><text x="50" y="262" text-anchor="end" class="dim small">Wed</text><rect x="60" y="250" width="16" height="16" rx="3" fill="#161b22"/><rect x="80" y="250" width="16" height="16" rx="3" fill="#161b22"/><rect x="100" y="250" width="16" height="16" rx="3" fill="#2d2440"/><rect x="120" y="250" width="16" height="16" rx="3" fill="#2d2440"/><rect x="140" y="250" width="16" height="16" rx="3" fill="#2d2440"/><rect x="160" y="250" width="16" height="16" rx="3" fill="#161b22"/><rect x="180" y="250" width="16" height="16" rx="3" fill="#161b22"/><rect x="200" y="250" width="16" height="16" rx="3" fill="#161b22"/><rect x="220" y="250" width="16" height="16" rx="3" fill="#161b22"/><rect x="240" y="250" width="16" height="16" rx="3" fill="#2d2440"/><rect x="260" y="250" width="16" height="16" rx="3" fill="#161b22"/><rect x="280" y="250" width="16" height="16" rx="3" fill="#161b22"/><rect x="300" y="250" width="16" height="16" rx="3" fill="#2d2440"/><rect x="320" y="250" width="16" height="16" rx="3" fill="#2d2440"/><rect x="340" y="250" width="16" height="16" rx="3" fill="#161b22"/><rect x="60" y="270" width="16" height="16" rx="3" fill="#2d2440"/><rect x="80" y="270" width="16" height="16" rx="3" fill="#2d2440"/><rect x="100" y="270" width="16" height="16" rx="3" fill="#161b22"/><rect x="120" y="270" width="16" height="16" rx="3" fill="#2d2440"/><rect x="140" y="270" width="16" height="16" rx="3" fill="#2d2440"/><rect x="160" y="270" width="16" height="16" rx="3" fill="#161b22"/><rect x="180" y="270" width="16" height="16" rx="3" fill="#161b22"/><rect x="200" y="270" width="16" height="16" rx="3" fill="#4a3768"/><rect x="220" y="270" width="16" height="16" rx="3" fill="#161b22"/><rect x="240" y="270" width="16" height="16" rx="3" fill="#2d2440"/><rect x="260" y="270" width="16" height="16" rx="3" fill="#2d2440"/><rect x="280" y="270" width="16" height="16" rx="3" fill="#4a3768"/><rect x="300" y="270" width="16" height="16" rx="3" fill="#2d2440"/><rect x="320" y="270" width="16" height="16" rx="3" fill="#2d2440"/><rect x="340" y="270" width="16" height="16" rx="3" fill="#161b22"/><text x="50" y="302" text-anchor="end" class="dim small">Fri</text><rect x="60" y="290" width="16" height="16" rx="3" fill="#161b22"/><rect x="80" y="290" width="16" height="16" rx="3" fill="#2d2440"/><rect x="100" y="290" width="16" height="16" rx="3" fill="#161b22"/><rect x="120" y="290" width="16" height="16" rx="3" fill="#4a3768"/><rect x="140" y="290" width="16" height="16" rx="3" fill="#161b22"/><rect x="160" y="290" width="16" height="16" rx="3" fill="#161b22"/><rect x="180" y="290" width="16" height="16" rx="3" fill="#161b22"/><rect x="200" y="290" width="16" height="16" rx="3" fill="#161b22"/><rect x="220" y="290" width="16" height="16" rx="3" fill="#2d2440"/><rect x="240" y="290" width="16" height="16" rx="3" fill="#2d2440"/><rect x="260" y="290" width="16" height="16" rx="3" fill="#2d2440"/><rect x="280" y="290" width="16" height="16" rx="3" fill="#2d2440"/><rect x="300" y="290" width="16" height="16" rx="3" fill="#4a3768"/><rect x="320" y="290" width="16" height="16" rx="3" fill="#4a3768"/><rect x="340" y="290" width="16" height="16" rx="3" fill="#161b22"/><rect x="60" y="310" width="16" height="16" rx="3" fill="#161b22"/><rect x="80" y="310" width="16" height="16" rx="3" fill="#2d2440"/><rect x="100" y="310" width="16" height="16" rx="3" fill="#161b22"/><rect x="120" y="310" width="16" height="16" rx="3" fill="#161b22"/><rect x="140" y="310" width="16" height="16" rx="3" fill="#161b22"/><rect x="160" y="310" width="16" height="16" rx="3" fill="#161b22"/><rect x="180" y="310" width="16" height="16" rx="3" fill="#2d2440"/><rect x="200" y="310" width="16" height="16" rx="3" fill="#161b22"/><rect x="220" y="310" width="16" height="16" rx="3" fill="#161b22"/><rect x="240" y="310" width="16" height="16" rx="3" fill="#2d2440"/><rect x="260" y="310" width="16" height="16" rx="3" fill="#4a3768"/><rect x="280" y="310" width="16" height="16" rx="3" fill="#161b22"/><rect x="300" y="310" width="16" height="16" rx="3" fill="#2d2440"/><rect x="320" y="310" width="16" height="16" rx="3" fill="#a78bfa"/><rect x="340" y="310" width="16" height="16" rx="3" fill="#161b22"/><rect x="60" y="330" width="16" height="16" rx="3" fill="#161b22"/><rect x="80" y="330" width="16" height="16" rx="3" fill="#161b22"/><rect x="100" y="330" width="16" height="16" rx="3" fill="#2d2440"/><rect x="120" y="330" width="16" height="16" rx="3" fill="#161b22"/><rect x="140" y="330" width="16" height="16" rx="3" fill="#2d2440"/><rect x="160" y="330" width="16" height="16" rx="3" fill="#161b22"/><rect x="180" y="330" width="16" height="16" rx="3" fill="#161b22"/><rect x="200" y="330" width="16" height="16" rx="3" fill="#161b22"/><rect x="220" y="330" width="16" height="16" rx="3" fill="#161b22"/><rect x="240" y="330" width="16" height="16" rx="3" fill="#161b22"/><rect x="260" y="330" width="16" height="16" rx="3" fill="#2d2440"/><rect x="280" y="330" width="16" height="16" rx="3" fill="#2d2440"/><rect x="300" y="330" width="16" height="16" rx="3" fill="#7c3aed"/><rect x="320" y="330" width="16" height="16" rx="3" fill="#7c3aed"/><rect x="340" y="330" width="16" height="16" rx="3" fill="#2d2440"/><text x="210" y="362" class="dim small">less</text><rect x="246" y="352" width="12" height="12" rx="2" fill="#161b22"/><rect x="260" y="352" width="12" height="12" rx="2" fill="#2d2440"/><rect x="274" y="352" width="12" height="12" rx="2" fill="#4a3768"/><rect x="288" y="352" width="12" height="12" rx="2" fill="#7c3aed"/><rect x="302" y="352" width="12" height="12" rx="2" fill="#a78bfa"/><text x="322" y="362" class="dim small">more</text></svg>