<svg xmlns="http://www.w3.org/2000/svg" width="760" height="372" viewBox="0 0 760 372" role="img" aria-label="activity">
<style>
.bg{fill:#0d1117}
.border{fill:none;stroke:#30363d;stroke-width:1}
text{font-family:'SF Mono','Monaco','Cascadia Mono','JetBrains Mono','Fira Code','Inconsolata','Roboto Mono','Consolas','Liberation Mono','DejaVu Sans Mono','Courier New',monospace;font-size:13px;fill:#c9d1d9}
.dim{fill:#6e7681}
.label{fill:#8b949e}
.acc{fill:#7c3aed;font-weight:600}
.blue{fill:#58a6ff}
.orange{fill:#f78166;font-weight:600}
.green{fill:#3fb950}
.yellow{fill:#d29922}
.red{fill:#ff7b72}
.small{font-size:11px}
.big{font-size:15px;font-weight:600}
.huge{font-size:18px;font-weight:700;fill:#7c3aed}
.mono{letter-spacing:0.5px}
</style>
<rect class="bg" width="760" height="372" rx="10"/>
<rect class="border" width="760" height="372" rx="10"/>
<circle cx="18" cy="18" r="5.5" fill="#ff5f57"/>
<circle cx="36" cy="18" r="5.5" fill="#febc2e"/>
<circle cx="54" cy="18" r="5.5" fill="#28c840"/>
<text x="380.0" y="22" text-anchor="middle" class="dim small">activity</text>
<text x="20" y="56"><tspan class="acc">▸</tspan> <tspan class="blue">contrib</tspan> --since=30d</text><rect x="20" y="80" width="226" height="70" rx="6" fill="#161b22"/><text x="133.0" y="112" text-anchor="middle" class="big" fill="#f78166">329</text><text x="133.0" y="136" text-anchor="middle" class="label small">commits</text><rect x="256" y="80" width="226" height="70" rx="6" fill="#161b22"/><text x="369.0" y="112" text-anchor="middle" class="big" fill="#3fb950">17 / 30</text><text x="369.0" y="136" text-anchor="middle" class="label small">active days</text><rect x="492" y="80" width="226" height="70" rx="6" fill="#161b22"/><text x="605.0" y="112" text-anchor="middle" class="big" fill="#7c3aed">58</text><text x="605.0" y="136" text-anchor="middle" class="label small">best day</text><text x="20" y="190"><tspan class="acc">▸</tspan> <tspan class="blue">heatmap</tspan> --weeks=30</text><text x="50" y="222" text-anchor="end" class="dim small">Mon</text><rect x="60" y="210" width="16" height="16" rx="3" fill="#161b22"/><rect x="80" y="210" width="16" height="16" rx="3" fill="#2d2440"/><rect x="100" y="210" width="16" height="16" rx="3" fill="#2d2440"/><rect x="120" y="210" width="16" height="16" rx="3" fill="#161b22"/><rect x="140" y="210" width="16" height="16" rx="3" fill="#161b22"/><rect x="160" y="210" width="16" height="16" rx="3" fill="#2d2440"/><rect x="180" y="210" width="16" height="16" rx="3" fill="#161b22"/><rect x="200" y="210" width="16" height="16" rx="3" fill="#4a3768"/><rect x="220" y="210" width="16" height="16" rx="3" fill="#161b22"/><rect x="240" y="210" width="16" height="16" rx="3" fill="#161b22"/><rect x="260" y="210" width="16" height="16" rx="3" fill="#2d2440"/><rect x="280" y="210" width="16" height="16" rx="3" fill="#2d2440"/><rect x="300" y="210" width="16" height="16" rx="3" fill="#2d2440"/><rect x="320" y="210" width="16" height="16" rx="3" fill="#2d2440"/><rect x="340" y="210" width="16" height="16" rx="3" fill="#161b22"/><rect x="360" y="210" width="16" height="16" rx="3" fill="#161b22"/><rect x="380" y="210" width="16" height="16" rx="3" fill="#2d2440"/><rect x="400" y="210" width="16" height="16" rx="3" fill="#161b22"/><rect x="420" y="210" width="16" height="16" rx="3" fill="#2d2440"/><rect x="440" y="210" width="16" height="16" rx="3" fill="#4a3768"/><rect x="460" y="210" width="16" height="16" rx="3" fill="#2d2440"/><rect x="480" y="210" width="16" height="16" rx="3" fill="#7c3aed"/><rect x="500" y="210" width="16" height="16" rx="3" fill="#4a3768"/><rect x="520" y="210" width="16" height="16" rx="3" fill="#a78bfa"/><rect x="540" y="210" width="16" height="16" rx="3" fill="#4a3768"/><rect x="560" y="210" width="16" height="16" rx="3" fill="#4a3768"/><rect x="580" y="210" width="16" height="16" rx="3" fill="#161b22"/><rect x="600" y="210" width="16" height="16" rx="3" fill="#161b22"/><rect x="620" y="210" width="16" height="16" rx="3" fill="#4a3768"/><rect x="640" y="210" width="16" height="16" rx="3" fill="#161b22"/><rect x="60" y="230" width="16" height="16" rx="3" fill="#2d2440"/><rect x="80" y="230" width="16" height="16" rx="3" fill="#2d2440"/><rect x="100" y="230" width="16" height="16" rx="3" fill="#161b22"/><rect x="120" y="230" width="16" height="16" rx="3" fill="#7c3aed"/><rect x="140" y="230" width="16" height="16" rx="3" fill="#2d2440"/><rect x="160" y="230" width="16" height="16" rx="3" fill="#2d2440"/><rect x="180" y="230" width="16" height="16" rx="3" fill="#a78bfa"/><rect x="200" y="230" width="16" height="16" rx="3" fill="#2d2440"/><rect x="220" y="230" width="16" height="16" rx="3" fill="#2d2440"/><rect x="240" y="230" width="16" height="16" rx="3" fill="#161b22"/><rect x="260" y="230" width="16" height="16" rx="3" fill="#2d2440"/><rect x="280" y="230" width="16" height="16" rx="3" fill="#161b22"/><rect x="300" y="230" width="16" height="16" rx="3" fill="#161b22"/><rect x="320" y="230" width="16" height="16" rx="3" fill="#161b22"/><rect x="340" y="230" width="16" height="16" rx="3" fill="#161b22"/><rect x="360" y="230" width="16" height="16" rx="3" fill="#161b22"/><rect x="380" y="230" width="16" height="16" rx="3" fill="#2d2440"/><rect x="400" y="230" width="16" height="16" rx="3" fill="#161b22"/><rect x="420" y="230" width="16" height="16" rx="3" fill="#7c3aed"/><rect x="440" y="230" width="16" height="16" rx="3" fill="#2d2440"/><rect x="460" y="230" width="16" height="16" rx="3" fill="#4a3768"/><rect x="480" y="230" width="16" height="16" rx="3" fill="#7c3aed"/><rect x="500" y="230" width="16" height="16" rx="3" fill="#4a3768"/><rect x="520" y="230" width="16" height="16" rx="3" fill="#2d2440"/><rect x="540" y="230" width="16" height="16" rx="3" fill="#2d2440"/><rect x="560" y="230" width="16" height="16" rx="3" fill="#4a3768"/><rect x="580" y="230" width="16" height="16" rx="3" fill="#2d2440"/><rect x="600" y="230" width="16" height="16" rx="3" fill="#161b22"/><rect x="620" y="230" width="16" height="16" rx="3" fill="#a78bfa"/><rect x="640" y="230" width="16" height="16" rx="3" fill="#161b22"/><text x="50" y="262" text-anchor="end" class="dim small">Wed</text><rect x="60" y="250" width="16" height="16" rx="3" fill="#161b22"/><rect x="80" y="250" width="16" height="16" rx="3" fill="#2d2440"/><rect x="100" y="250" width="16" height="16" rx="3" fill="#161b22"/><rect x="120" y="250" width="16" height="16" rx="3" fill="#2d2440"/><rect x="140" y="250" width="16" height="16" rx="3" fill="#4a3768"/><rect x="160" y="250" width="16" height="16" rx="3" fill="#4a3768"/><rect x="180" y="250" width="16" height="16" rx="3" fill="#2d2440"/><rect x="200" y="250" width="16" height="16" rx="3" fill="#2d2440"/><rect x="220" y="250" width="16" height="16" rx="3" fill="#2d2440"/><rect x="240" y="250" width="16" height="16" rx="3" fill="#161b22"/><rect x="260" y="250" width="16" height="16" rx="3" fill="#161b22"/><rect x="280" y="250" width="16" height="16" rx="3" fill="#2d2440"/><rect x="300" y="250" width="16" height="16" rx="3" fill="#2d2440"/><rect x="320" y="250" width="16" height="16" rx="3" fill="#2d2440"/><rect x="340" y="250" width="16" height="16" rx="3" fill="#161b22"/><rect x="360" y="250" width="16" height="16" rx="3" fill="#161b22"/><rect x="380" y="250" width="16" height="16" rx="3" fill="#161b22"/><rect x="400" y="250" width="16" height="16" rx="3" fill="#161b22"/><rect x="420" y="250" width="16" height="16" rx="3" fill="#2d2440"/><rect x="440" y="250" width="16" height="16" rx="3" fill="#161b22"/><rect x="460" y="250" width="16" height="16" rx="3" fill="#161b22"/><rect x="480" y="250" width="16" height="16" rx="3" fill="#2d2440"/><rect x="500" y="250" width="16" height="16" rx="3" fill="#2d2440"/><rect x="520" y="250" width="16" height="16" rx="3" fill="#161b22"/><rect x="540" y="250" width="16" height="16" rx="3" fill="#4a3768"/><rect x="560" y="250" width="16" height="16" rx="3" fill="#2d2440"/><rect x="580" y="250" width="16" height="16" rx="3" fill="#4a3768"/><rect x="600" y="250" width="16" height="16" rx="3" fill="#161b22"/><rect x="620" y="250" width="16" height="16" rx="3" fill="#2d2440"/><rect x="640" y="250" width="16" height="16" rx="3" fill="#161b22"/><rect x="60" y="270" width="16" height="16" rx="3" fill="#161b22"/><rect x="80" y="270" width="16" height="16" rx="3" fill="#2d2440"/><rect x="100" y="270" width="16" height="16" rx="3" fill="#2d2440"/><rect x="120" y="270" width="16" height="16" rx="3" fill="#161b22"/><rect x="140" y="270" width="16" height="16" rx="3" fill="#2d2440"/><rect x="160" y="270" width="16" height="16" rx="3" fill="#a78bfa"/><rect x="180" y="270" width="16" height="16" rx="3" fill="#161b22"/><rect x="200" y="270" width="16" height="16" rx="3" fill="#2d2440"/><rect x="220" y="270" width="16" height="16" rx="3" fill="#2d2440"/><rect x="240" y="270" width="16" height="16" rx="3" fill="#2d2440"/><rect x="260" y="270" width="16" height="16" rx="3" fill="#2d2440"/><rect x="280" y="270" width="16" height="16" rx="3" fill="#161b22"/><rect x="300" y="270" width="16" height="16" rx="3" fill="#2d2440"/><rect x="320" y="270" width="16" height="16" rx="3" fill="#2d2440"/><rect x="340" y="270" width="16" height="16" rx="3" fill="#161b22"/><rect x="360" y="270" width="16" height="16" rx="3" fill="#161b22"/><rect x="380" y="270" width="16" height="16" rx="3" fill="#2d2440"/><rect x="400" y="270" width="16" height="16" rx="3" fill="#161b22"/><rect x="420" y="270" width="16" height="16" rx="3" fill="#2d2440"/><rect x="440" y="270" width="16" height="16" rx="3" fill="#2d2440"/><rect x="460" y="270" width="16" height="16" rx="3" fill="#4a3768"/><rect x="480" y="270" width="16" height="16" rx="3" fill="#2d2440"/><rect x="500" y="270" width="16" height="16" rx="3" fill="#2d2440"/><rect x="520" y="270" width="16" height="16" rx="3" fill="#2d2440"/><rect x="540" y="270" width="16" height="16" rx="3" fill="#2d2440"/><rect x="560" y="270" width="16" height="16" rx="3" fill="#2d2440"/><rect x="580" y="270" width="16" height="16" rx="3" fill="#161b22"/><rect x="600" y="270" width="16" height="16" rx="3" fill="#2d2440"/><rect x="620" y="270" width="16" height="16" rx="3" fill="#4a3768"/><rect x="640" y="270" width="16" height="16" rx="3" fill="#161b22"/><text x="50" y="302" text-anchor="end" class="dim small">Fri</text><rect x="60" y="290" width="16" height="16" rx="3" fill="#161b22"/><rect x="80" y="290" width="16" height="16" rx="3" fill="#2d2440"/><rect x="100" y="290" width="16" height="16" rx="3" fill="#2d2440"/><rect x="120" y="290" width="16" height="16" rx="3" fill="#2d2440"/><rect x="140" y="290" width="16" height="16" rx="3" fill="#161b22"/><rect x="160" y="290" width="16" height="16" rx="3" fill="#2d2440"/><rect x="180" y="290" width="16" height="16" rx="3" fill="#2d2440"/><rect x="200" y="290" width="16" height="16" rx="3" fill="#161b22"/><rect x="220" y="290" width="16" height="16" rx="3" fill="#161b22"/><rect x="240" y="290" width="16" height="16" rx="3" fill="#161b22"/><rect x="260" y="290" width="16" height="16" rx="3" fill="#2d2440"/><rect x="280" y="290" width="16" height="16" rx="3" fill="#161b22"/><rect x="300" y="290" width="16" height="16" rx="3" fill="#4a3768"/><rect x="320" y="290" width="16" height="16" rx="3" fill="#161b22"/><rect x="340" y="290" width="16" height="16" rx="3" fill="#161b22"/><rect x="360" y="290" width="16" height="16" rx="3" fill="#161b22"/><rect x="380" y="290" width="16" height="16" rx="3" fill="#161b22"/><rect x="400" y="290" width="16" height="16" rx="3" fill="#2d2440"/><rect x="420" y="290" width="16" height="16" rx="3" fill="#2d2440"/><rect x="440" y="290" width="16" height="16" rx="3" fill="#2d2440"/><rect x="460" y="290" width="16" height="16" rx="3" fill="#2d2440"/><rect x="480" y="290" width="16" height="16" rx="3" fill="#4a3768"/><rect x="500" y="290" width="16" height="16" rx="3" fill="#4a3768"/><rect x="520" y="290" width="16" height="16" rx="3" fill="#4a3768"/><rect x="540" y="290" width="16" height="16" rx="3" fill="#2d2440"/><rect x="560" y="290" width="16" height="16" rx="3" fill="#161b22"/><rect x="580" y="290" width="16" height="16" rx="3" fill="#161b22"/><rect x="600" y="290" width="16" height="16" rx="3" fill="#161b22"/><rect x="620" y="290" width="16" height="16" rx="3" fill="#161b22"/><rect x="640" y="290" width="16" height="16" rx="3" fill="#161b22"/><rect x="60" y="310" width="16" height="16" rx="3" fill="#161b22"/><rect x="80" y="310" width="16" height="16" rx="3" fill="#161b22"/><rect x="100" y="310" width="16" height="16" rx="3" fill="#2d2440"/><rect x="120" y="310" width="16" height="16" rx="3" fill="#161b22"/><rect x="140" y="310" width="16" height="16" rx="3" fill="#161b22"/><rect x="160" y="310" width="16" height="16" rx="3" fill="#161b22"/><rect x="180" y="310" width="16" height="16" rx="3" fill="#2d2440"/><rect x="200" y="310" width="16" height="16" rx="3" fill="#2d2440"/><rect x="220" y="310" width="16" height="16" rx="3" fill="#161b22"/><rect x="240" y="310" width="16" height="16" rx="3" fill="#161b22"/><rect x="260" y="310" width="16" height="16" rx="3" fill="#2d2440"/><rect x="280" y="310" width="16" height="16" rx="3" fill="#161b22"/><rect x="300" y="310" width="16" height="16" rx="3" fill="#161b22"/><rect x="320" y="310" width="16" height="16" rx="3" fill="#161b22"/><rect x="340" y="310" width="16" height="16" rx="3" fill="#161b22"/><rect x="360" y="310" width="16" height="16" rx="3" fill="#2d2440"/><rect x="380" y="310" width="16" height="16" rx="3" fill="#161b22"/><rect x="400" y="310" width="16" height="16" rx="3" fill="#161b22"/><rect x="420" y="310" width="16" height="16" rx="3" fill="#2d2440"/><rect x="440" y="310" width="16" height="16" rx="3" fill="#2d2440"/><rect x="460" y="310" width="16" height="16" rx="3" fill="#161b22"/><rect x="480" y="310" width="16" height="16" rx="3" fill="#2d2440"/><rect x="500" y="310" width="16" height="16" rx="3" fill="#a78bfa"/><rect x="520" y="310" width="16" height="16" rx="3" fill="#4a3768"/><rect x="540" y="310" width="16" height="16" rx="3" fill="#2d2440"/><rect x="560" y="310" width="16" height="16" rx="3" fill="#161b22"/><rect x="580" y="310" width="16" height="16" rx="3" fill="#4a3768"/><rect x="600" y="310" width="16" height="16" rx="3" fill="#161b22"/><rect x="620" y="310" width="16" height="16" rx="3" fill="#2d2440"/><rect x="640" y="310" width="16" height="16" rx="3" fill="#161b22"/><rect x="60" y="330" width="16" height="16" rx="3" fill="#161b22"/><rect x="80" y="330" width="16" height="16" rx="3" fill="#161b22"/><rect x="100" y="330" width="16" height="16" rx="3" fill="#161b22"/><rect x="120" y="330" width="16" height="16" rx="3" fill="#161b22"/><rect x="140" y="330" width="16" height="16" rx="3" fill="#161b22"/><rect x="160" y="330" width="16" height="16" rx="3" fill="#161b22"/><rect x="180" y="330" width="16" height="16" rx="3" fill="#161b22"/><rect x="200" y="330" width="16" height="16" rx="3" fill="#161b22"/><rect x="220" y="330" width="16" height="16" rx="3" fill="#2d2440"/><rect x="240" y="330" width="16" height="16" rx="3" fill="#161b22"/><rect x="260" y="330" width="16" height="16" rx="3" fill="#161b22"/><rect x="280" y="330" width="16" height="16" rx="3" fill="#2d2440"/><rect x="300" y="330" width="16" height="16" rx="3" fill="#161b22"/><rect x="320" y="330" width="16" height="16" rx="3" fill="#2d2440"/><rect x="340" y="330" width="16" height="16" rx="3" fill="#161b22"/><rect x="360" y="330" width="16" height="16" rx="3" fill="#161b22"/><rect x="380" y="330" width="16" height="16" rx="3" fill="#161b22"/><rect x="400" y="330" width="16" height="16" rx="3" fill="#161b22"/><rect x="420" y="330" width="16" height="16" rx="3" fill="#161b22"/><rect x="440" y="330" width="16" height="16" rx="3" fill="#2d2440"/><rect x="460" y="330" width="16" height="16" rx="3" fill="#2d2440"/><rect x="480" y="330" width="16" height="16" rx="3" fill="#4a3768"/><rect x="500" y="330" width="16" height="16" rx="3" fill="#7c3aed"/><rect x="520" y="330" width="16" height="16" rx="3" fill="#2d2440"/><rect x="540" y="330" width="16" height="16" rx="3" fill="#2d2440"/><rect x="560" y="330" width="16" height="16" rx="3" fill="#4a3768"/><rect x="580" y="330" width="16" height="16" rx="3" fill="#7c3aed"/><rect x="600" y="330" width="16" height="16" rx="3" fill="#161b22"/><rect x="620" y="330" width="16" height="16" rx="3" fill="#2d2440"/><rect x="640" y="330" width="16" height="16" rx="3" fill="#2d2440"/></svg>