<svg xmlns="http://www.w3.org/2000/svg" width="760" height="320" viewBox="0 0 760 320" role="img" aria-label="BadRat-in -- neofetch">
<style>
.bg{fill:#0d1117}
.border{fill:none;stroke:#30363d;stroke-width:1}
text{font-family:'SF Mono','Monaco','Cascadia Mono','JetBrains Mono','Fira Code','Inconsolata','Roboto Mono','Consolas','Liberation Mono','DejaVu Sans Mono','Courier New',monospace;font-size:13px;fill:#c9d1d9}
.dim{fill:#6e7681}
.label{fill:#8b949e}
.acc{fill:#7c3aed;font-weight:600}
.blue{fill:#58a6ff}
.orange{fill:#f78166;font-weight:600}
.green{fill:#3fb950}
.yellow{fill:#d29922}
.red{fill:#ff7b72}
.small{font-size:11px}
.big{font-size:15px;font-weight:600}
.huge{font-size:18px;font-weight:700;fill:#7c3aed}
.mono{letter-spacing:0.5px}
</style>
<rect class="bg" width="760" height="320" rx="10"/>
<rect class="border" width="760" height="320" rx="10"/>
<circle cx="18" cy="18" r="5.5" fill="#ff5f57"/>
<circle cx="36" cy="18" r="5.5" fill="#febc2e"/>
<circle cx="54" cy="18" r="5.5" fill="#28c840"/>
<text x="380.0" y="22" text-anchor="middle" class="dim small">BadRat-in -- neofetch</text>
<g fill="none" stroke="#7c3aed" stroke-width="2.5" stroke-linecap="round" stroke-linejoin="round"><circle cx="107" cy="102" r="22" fill="#7c3aed" fill-opacity="0.12"/><circle cx="169" cy="102" r="22" fill="#7c3aed" fill-opacity="0.12"/><circle cx="107" cy="105" r="11" fill="#a78bfa" fill-opacity="0.35" stroke="none"/><circle cx="169" cy="105" r="11" fill="#a78bfa" fill-opacity="0.35" stroke="none"/><path d="M 180 214 C 222 232 248 202 228 174" stroke-width="3"/><path d="M 138 106 C 178 106 194 136 190 166 C 187 200 176 228 138 228 C 100 228 89 200 86 166 C 82 136 98 106 138 106 Z" fill="#7c3aed" fill-opacity="0.10"/><ellipse cx="122" cy="218" rx="10" ry="6" fill="#7c3aed" fill-opacity="0.85" stroke="none"/><ellipse cx="154" cy="218" rx="10" ry="6" fill="#7c3aed" fill-opacity="0.85" stroke="none"/><circle cx="121" cy="146" r="7" fill="#c9d1d9" stroke="none"/><circle cx="122" cy="147" r="3" fill="#0d1117" stroke="none"/><circle cx="155" cy="146" r="7" fill="#c9d1d9" stroke="none"/><circle cx="156" cy="147" r="3" fill="#0d1117" stroke="none"/><path d="M 131 164 L 145 164 L 138 173 Z" fill="#f78166" stroke="none"/><path d="M 130 176 Q 138 183 146 176" stroke="#6e7681" stroke-width="1.5"/><line x1="129" y1="168" x2="84" y2="160" stroke="#6e7681" stroke-width="1"/><line x1="147" y1="168" x2="192" y2="160" stroke="#6e7681" stroke-width="1"/><line x1="129" y1="168" x2="84" y2="168" stroke="#6e7681" stroke-width="1"/><line x1="147" y1="168" x2="192" y2="168" stroke="#6e7681" stroke-width="1"/><line x1="129" y1="168" x2="84" y2="176" stroke="#6e7681" stroke-width="1"/><line x1="147" y1="168" x2="192" y2="176" stroke="#6e7681" stroke-width="1"/></g><text x="138" y="262" text-anchor="middle" class="dim small">~/badrat-in</text><text x="260" y="70"><tspan class="label">user</tspan>&#160;&#160;&#160;&#160;&#160;&#160;&#160;&#160;  <tspan class="blue">Ravindra Singh Budgurjar</tspan></text><text x="260" y="94"><tspan class="label">role</tspan>&#160;&#160;&#160;&#160;&#160;&#160;&#160;&#160;  <tspan class="orange">Founder · RK Innovate</tspan></text><text x="260" y="118"><tspan class="label">uptime</tspan>&#160;&#160;&#160;&#160;&#160;&#160;  <tspan class="green">5.9 years on GitHub</tspan></text><text x="260" y="142"><tspan class="label">stack</tspan>&#160;&#160;&#160;&#160;&#160;&#160;&#160;  <tspan class="yellow">Python, PHP, TypeScript, Dart</tspan></text><text x="260" y="166"><tspan class="label">repos</tspan>&#160;&#160;&#160;&#160;&#160;&#160;&#160;  <tspan class="orange">36 (+27 forks)</tspan></text><text x="260" y="190"><tspan class="label">stars</tspan>&#160;&#160;&#160;&#160;&#160;&#160;&#160;  <tspan class="orange">★ 47</tspan></text><text x="260" y="214"><tspan class="label">PRs</tspan>&#160;&#160;&#160;&#160;&#160;&#160;&#160;&#160;&#160;  <tspan class="orange">266</tspan></text><text x="260" y="238"><tspan class="label">issues</tspan>&#160;&#160;&#160;&#160;&#160;&#160;  <tspan class="orange">79</tspan></text><text x="260" y="262"><tspan class="label">commits/yr</tspan>&#160;&#160;  <tspan class="orange">1666</tspan></text></svg>