<svg xmlns="http://www.w3.org/2000/svg" width="760" height="300" viewBox="0 0 760 300" role="img" aria-label="languages">
<style>
.bg{fill:#0d1117}
.border{fill:none;stroke:#30363d;stroke-width:1}
text{font-family:'SF Mono','Monaco','Cascadia Mono','JetBrains Mono','Fira Code','Inconsolata','Roboto Mono','Consolas','Liberation Mono','DejaVu Sans Mono','Courier New',monospace;font-size:13px;fill:#c9d1d9}
.dim{fill:#6e7681}
.label{fill:#8b949e}
.acc{fill:#7c3aed;font-weight:600}
.blue{fill:#58a6ff}
.orange{fill:#f78166;font-weight:600}
.green{fill:#3fb950}
.yellow{fill:#d29922}
.red{fill:#ff7b72}
.small{font-size:11px}
.big{font-size:15px;font-weight:600}
.huge{font-size:18px;font-weight:700;fill:#7c3aed}
.mono{letter-spacing:0.5px}
</style>
<rect class="bg" width="760" height="300" rx="10"/>
<rect class="border" width="760" height="300" rx="10"/>
<circle cx="18" cy="18" r="5.5" fill="#ff5f57"/>
<circle cx="36" cy="18" r="5.5" fill="#febc2e"/>
<circle cx="54" cy="18" r="5.5" fill="#28c840"/>
<text x="380.0" y="22" text-anchor="middle" class="dim small">languages</text>
<text x="20" y="56"><tspan class="acc">▸</tspan> <tspan class="blue">langstat</tspan> --owner --by=bytes</text><text x="20" y="95" class="blue">Python</text><rect x="150" y="84" width="500" height="14" rx="3" fill="#21262d"/><rect x="150" y="84" width="239" height="14" rx="3" fill="#3572A5"/><text x="668" y="95" class="orange">47.9%</text><text x="20" y="127" class="blue">PHP</text><rect x="150" y="116" width="500" height="14" rx="3" fill="#21262d"/><rect x="150" y="116" width="69" height="14" rx="3" fill="#4F5D95"/><text x="668" y="127" class="orange">13.9%</text><text x="20" y="159" class="blue">TypeScript</text><rect x="150" y="148" width="500" height="14" rx="3" fill="#21262d"/><rect x="150" y="148" width="54" height="14" rx="3" fill="#3178c6"/><text x="668" y="159" class="orange">10.9%</text><text x="20" y="191" class="blue">Dart</text><rect x="150" y="180" width="500" height="14" rx="3" fill="#21262d"/><rect x="150" y="180" width="41" height="14" rx="3" fill="#00B4AB"/><text x="668" y="191" class="orange">8.4%</text><text x="20" y="223" class="blue">Shell</text><rect x="150" y="212" width="500" height="14" rx="3" fill="#21262d"/><rect x="150" y="212" width="30" height="14" rx="3" fill="#89e051"/><text x="668" y="223" class="orange">6.0%</text><text x="20" y="255" class="blue">Swift</text><rect x="150" y="244" width="500" height="14" rx="3" fill="#21262d"/><rect x="150" y="244" width="21" height="14" rx="3" fill="#F05138"/><text x="668" y="255" class="orange">4.2%</text></svg>